<?xml version="1.0" encoding="UTF-8" standalone="no"?>
<!-- Created with Inkscape (http://www.inkscape.org/) -->

<svg
   xmlns:dc="http://purl.org/dc/elements/1.1/"
   xmlns:cc="http://creativecommons.org/ns#"
   xmlns:rdf="http://www.w3.org/1999/02/22-rdf-syntax-ns#"
   xmlns:svg="http://www.w3.org/2000/svg"
   xmlns="http://www.w3.org/2000/svg"
   xmlns:sodipodi="http://sodipodi.sourceforge.net/DTD/sodipodi-0.dtd"
   xmlns:inkscape="http://www.inkscape.org/namespaces/inkscape"
   width="210mm"
   height="297mm"
   viewBox="0 0 210 297"
   version="1.1"
   id="svg8"
   sodipodi:docname="delphi_lang.svg"
   inkscape:version="0.92.2 5c3e80d, 2017-08-06">
  <defs
     id="defs2" />
  <sodipodi:namedview
     id="base"
     pagecolor="#ffffff"
     bordercolor="#666666"
     borderopacity="1.0"
     inkscape:pageopacity="0.0"
     inkscape:pageshadow="2"
     inkscape:zoom="0.29486639"
     inkscape:cx="-200.92832"
     inkscape:cy="367.83266"
     inkscape:document-units="mm"
     inkscape:current-layer="layer1"
     showgrid="false"
     inkscape:lockguides="false"
     inkscape:snap-bbox="true"
     inkscape:bbox-paths="true"
     inkscape:bbox-nodes="true"
     inkscape:snap-bbox-edge-midpoints="true"
     inkscape:snap-bbox-midpoints="true"
     inkscape:object-paths="true"
     inkscape:snap-intersection-paths="true"
     inkscape:snap-smooth-nodes="true"
     inkscape:snap-midpoints="true"
     inkscape:snap-center="true"
     inkscape:snap-object-midpoints="true"
     inkscape:snap-global="false"
     inkscape:window-width="1440"
     inkscape:window-height="812"
     inkscape:window-x="0"
     inkscape:window-y="1"
     inkscape:window-maximized="1" />
  <metadata
     id="metadata5">
    <rdf:RDF>
      <cc:Work
         rdf:about="">
        <dc:format>image/svg+xml</dc:format>
        <dc:type
           rdf:resource="http://purl.org/dc/dcmitype/StillImage" />
        <dc:title></dc:title>
      </cc:Work>
    </rdf:RDF>
  </metadata>
  <g
     inkscape:label="Layer 1"
     inkscape:groupmode="layer"
     id="layer1">
    <rect
       style="fill:#ffffff;fill-opacity:1;stroke-width:0.25959334"
       id="rect5063"
       width="196.25099"
       height="281.36761"
       x="4.6921792"
       y="5.566793" />
    <g
       id="g4248"
       transform="translate(78.132953,-74.210291)">
      <path
         style="fill:#ffffff;stroke-width:0.26458332"
         d="M -73.440773,196.45833 V 79.777084 h 101.6 101.600003 V 196.45833 313.13958 h -101.600003 -101.6 z"
         id="path4252"
         inkscape:connector-curvature="0" />
      <path
         style="fill:#e6273a;stroke-width:0.26458332"
         d="m 55.143282,311.48594 c -11.480506,-24.6749 -35.105581,-76.58483 -34.933398,-76.75701 0.246145,-0.24615 5.738612,-1.21308 6.947107,-1.22303 0.581744,-0.005 1.633344,0.91286 5.55625,4.84847 5.408607,5.42613 9.471572,8.9885 14.760569,12.94194 7.132458,5.3314 14.186017,13.20068 18.87188,21.05435 4.601041,7.7115 9.312304,19.58698 9.2788,23.38867 -0.02887,3.2758 -4.101322,8.32569 -9.741135,12.07914 -2.383838,1.58651 -9.276467,5.32111 -9.820709,5.32111 -0.08248,0 -0.496197,-0.74414 -0.919364,-1.65364 z M 25.513394,297.88599 c -20.3227255,-3.77399 -37.772933,-4.4226 -48.947917,-1.81937 -1.527969,0.35595 -3.046016,0.72546 -3.373437,0.82113 -0.415944,0.12155 -0.595313,0.0628 -0.595313,-0.19502 0,-0.20295 2.560259,-6.25926 5.689465,-13.45847 4.975101,-11.44596 5.813928,-13.2006 6.680729,-13.97455 2.099268,-1.87441 5.9096886,-3.27977 11.3179333,-4.1743 3.55046757,-0.58725 14.5587167,-0.67382 19.7035397,-0.15496 7.1477,0.72087 13.347784,1.67789 13.799481,2.13004 0.56715,0.56773 8.160935,17.1371 8.160935,17.80687 0,0.62719 -7.094355,13.65213 -7.507647,13.78373 -0.163658,0.0521 -2.381155,-0.29218 -4.927769,-0.7651 z m -42.693397,-11.66776 c 0.197853,-0.25466 2.383583,-3.33665 4.857178,-6.84886 l 4.497446,-6.38584 2.9772002,-0.82083 c 4.30450357,-1.18678 8.4329905,-2.07884 11.3115725,-2.44414 1.3824479,-0.17544 2.6157872,-0.40833 2.7407552,-0.51754 0.7774967,-0.67948 -8.52498875,-0.59837 -12.7954722,0.11156 -2.7473672,0.45673 -6.4347277,1.43278 -6.9841427,1.84871 -0.323596,0.24498 -6.149023,12.55914 -7.060359,14.92465 -0.273666,0.71034 -0.04487,0.77674 0.455822,0.13229 z m -5.228953,-20.6375 c -9.941978,-10.29114 -16.261937,-23.34657 -18.667857,-38.56302 -0.578424,-3.65831 -0.662207,-14.888 -0.138178,-18.52083 1.92574,-13.35023 7.05141,-25.34957 15.088179,-35.32188 10.269606,-12.74289 25.42476513,-21.85225 41.321456,-24.83721 4.804037,-0.90206 7.916955,-1.18975 12.964583,-1.19813 6.952342,-0.0115 12.731811,0.89036 19.432222,3.03244 10.047171,3.21203 20.757423,9.3524 27.795903,15.93588 1.634564,1.52889 1.805472,1.77736 1.455208,2.11554 -0.218281,0.21076 -16.678672,11.61042 -36.578645,25.33259 -28.492572,19.64726 -36.1820835,25.0667 -36.1832424,25.50133 -0.00212,0.80871 2.6909739,13.47755 2.920238,13.73718 0.1071668,0.12137 1.7702847,-0.097 3.6958164,-0.48524 2.245707,-0.45281 3.592375,-0.6145 3.755909,-0.45097 0.525436,0.52544 14.205243,30.61752 14.008232,30.81453 -0.113107,0.11311 -1.804826,-0.0281 -3.759375,-0.31386 -10.216597,-1.49355 -22.1212011,-1.84264 -28.689141,-0.84129 -6.554483,0.99931 -10.911618,2.70795 -13.734203,5.38586 -0.881952,0.83674 -1.679102,1.52135 -1.771441,1.52135 -0.09234,0 -1.40439,-1.27992 -2.915664,-2.84427 z m 5.228418,-11.35418 c 1.289736,-0.67862 2.388942,-1.26829 2.442681,-1.31038 0.05374,-0.0421 -0.558151,-1.12395 -1.35976,-2.40416 -5.806233,-9.27277 -9.215466,-17.91354 -10.69327,-27.1023 -0.611034,-3.79932 -0.606565,-12.10416 0.0085,-15.70658 1.031891,-6.04424 2.737117,-11.15743 5.595882,-16.77948 5.143743,-10.1157 13.5088574,-19.619 24.1957486,-27.48792 3.5801115,-2.6361 3.6530809,-2.69615 3.2765365,-2.69615 -0.4758849,0 -5.87889083,3.37274 -8.7237173,5.44563 -11.4544158,8.34631 -19.7060578,18.13275 -24.3621558,28.89349 -6.072262,14.03364 -6.041922,29.36026 0.09087,45.90604 1.285655,3.46858 6.573234,14.47568 6.953821,14.47568 0.126458,0 1.285161,-0.55524 2.574893,-1.23387 z m -27.32736,10.02721 c -0.804566,-0.51517 -7.805888,-12.49563 -8.203878,-14.03824 -0.08722,-0.33807 -0.05419,-0.70982 0.0734,-0.82611 0.12759,-0.11629 2.851357,-0.5296 6.052815,-0.91846 3.201459,-0.38887 6.192923,-0.77172 6.647699,-0.85078 0.816414,-0.14194 0.846225,-0.10751 2.358763,2.72377 0.842544,1.57714 2.226627,3.97507 3.075739,5.32875 0.849114,1.35368 1.542505,2.60384 1.54087,2.77813 -0.0024,0.24695 -10.715059,6.01825 -11.139826,6.00138 -0.0561,-0.002 -0.238607,-0.0915 -0.405578,-0.19844 z m -10.875449,-20.38877 c -0.616424,-0.39139 -4.828115,-12.72171 -4.828224,-14.1353 -2e-5,-0.26646 0.198624,-0.46302 0.467931,-0.46302 0.862328,0 15.223852,2.88598 15.44072,3.10285 0.117745,0.11775 0.508569,1.34301 0.868495,2.7228 0.359929,1.3798 1.116616,3.84536 1.68153,5.47904 0.700543,2.02589 0.941007,3.05642 0.756288,3.24114 -0.323138,0.32314 -13.882571,0.37261 -14.38674,0.0525 z M 9.688855,228.27448 c -0.4715563,-0.93813 -1.7558808,-7.99186 -1.4971077,-8.22237 0.573606,-0.51096 77.9089117,-53.77199 78.2890047,-53.91785 0.228327,-0.0876 0.468437,0.002 0.539382,0.20027 0.112046,0.31386 1.698217,9.63406 6.422916,37.74046 1.029351,6.12342 1.193271,7.52445 0.901468,7.70479 -0.293206,0.18121 -83.627299,16.95783 -84.233795,16.95775 -0.104021,-2e-5 -0.2938599,-0.20839 -0.421868,-0.46305 z m -63.674331,-4.77886 -8.193661,-2.82791 -0.19067,-0.92604 c -0.725308,-3.52265 -1.534621,-13.19797 -1.541873,-18.43305 -0.0042,-3.0414 0.113671,-3.79195 0.595569,-3.79195 0.290647,0 17.579237,11.03787 17.768668,11.34438 0.05957,0.0964 7.94e-4,1.8398 -0.13032,3.87428 -0.198224,3.07278 -0.02069,9.44194 0.360423,12.93099 0.03008,0.27538 -0.06437,0.5359 -0.209891,0.57895 -0.145521,0.043 -3.951731,-1.1943 -8.458245,-2.74965 z m 0.12387,-26.66121 c -4.583907,-3.99894 -8.546292,-7.48252 -8.805301,-7.7413 -0.444476,-0.44407 -0.448029,-0.62568 -0.06327,-3.23337 1.167161,-7.91035 4.404326,-20.63344 5.245253,-20.6155 0.173814,0.004 4.066495,5.14891 8.650401,11.43378 6.182437,8.47657 8.323342,11.60026 8.291642,12.09794 -0.02349,0.369 -0.638863,2.39732 -1.367464,4.50737 -0.728605,2.11006 -1.66691,5.38361 -2.085123,7.27458 -0.52949,2.3941 -0.877507,3.45469 -1.146078,3.49271 -0.212127,0.03 -4.136154,-3.21727 -8.72006,-7.21621 z m 7.9375,-27.12833 c -4.001823,-7.72221 -7.312588,-14.31581 -7.357255,-14.65245 -0.04686,-0.35318 0.6115,-1.994 1.556482,-3.8792 3.405194,-6.79323 8.115567,-13.96521 13.354039,-20.33276 3.158525,-3.83931 4.008213,-4.69607 4.312997,-4.3489 0.119674,0.13632 2.089989,8.82036 4.378476,19.29786 2.28849,10.4775 4.216604,19.24424 4.2847,19.48165 0.07781,0.27129 -0.675812,1.35258 -2.028463,2.91042 -3.913717,4.5074 -7.7826,10.07024 -9.873697,14.19683 -0.384281,0.75834 -0.845516,1.37613 -1.024967,1.37286 -0.179448,-0.003 -3.600489,-6.32411 -7.602312,-14.04631 z m 23.695829,-7.97431 c -0.06972,-0.32742 -0.970113,-10.22621 -2.000888,-21.9973 l -1.874136,-21.40198 0.606785,-0.65018 c 2.081948,-2.23082 10.349952,-8.24978 15.8203263,-11.51692 6.305304,-3.76579 15.8602336,-8.270901 16.3762452,-7.721334 0.1386073,0.147621 -0.6698165,7.758594 -1.9657774,18.506984 -1.2106619,10.04094 -2.5166426,20.99469 -2.9021802,24.34167 -0.3855376,3.34698 -0.7960043,6.32354 -0.9121484,6.61458 -0.13926608,0.34898 -1.37835746,1.04958 -3.6388252,2.05745 -5.6134608,2.50287 -11.7830893,6.37584 -16.8339293,10.56746 -1.189059,0.98679 -2.248956,1.79432 -2.355324,1.79452 -0.106367,2e-4 -0.250436,-0.26753 -0.320148,-0.59495 z m 86.767712,-8.02667 c -1.953961,-1.23325 -7.645331,-4.00035 -10.746898,-5.22506 -2.813812,-1.11109 -8.287264,-2.77916 -10.55206,-3.21582 -2.290273,-0.44156 -2.95461,-0.69659 -2.808232,-1.07804 0.190923,-0.49754 35.24889,-48.479 36.000883,-49.27197 l 0.574292,-0.605583 4.217048,1.363405 c 11.018673,3.562425 21.194382,8.622058 30.290622,15.061298 2.15873,1.52818 3.15348,2.39002 3.10376,2.68908 -0.0771,0.46357 -48.297684,40.97315 -48.755482,40.95892 -0.146079,-0.005 -0.741849,-0.30885 -1.323933,-0.67623 z M 7.1523793,145.96745 c -0.1184276,-0.19161 1.867863,-8.09104 11.0823137,-44.07411 1.077354,-4.207146 2.122482,-7.813013 2.322502,-8.013034 0.444836,-0.444837 8.118009,-2.015936 12.613031,-2.582547 6.519495,-0.821802 13.36465,-1.062154 19.843142,-0.696749 7.990284,0.450675 8.619765,0.54063 8.600204,1.228993 -0.01566,0.55087 -27.129753,50.729067 -27.791354,51.431547 -0.293021,0.31112 -1.298022,0.3692 -5.458465,0.31545 -6.755244,-0.0873 -12.779479,0.58623 -18.7694416,2.09841 -2.3364348,0.58984 -2.2632934,0.58109 -2.4419321,0.29204 z"
         id="path4250"
         inkscape:connector-curvature="0" />
    </g>
    <text
       xml:space="preserve"
       style="font-style:normal;font-weight:normal;font-size:10.58333302px;line-height:1.25;font-family:sans-serif;letter-spacing:0px;word-spacing:0px;fill:#e6273a;fill-opacity:1;stroke:none;stroke-width:0.26458332"
       x="46.231716"
       y="285.04269"
       id="text4256"><tspan
         sodipodi:role="line"
         id="tspan4254"
         x="46.231716"
         y="285.04269"
         style="font-size:35.63038254px;fill:#e6273a;fill-opacity:1;stroke-width:0.26458332">Delphi</tspan></text>
  </g>
</svg>
