<?xml version="1.0" standalone="no"?>
<!DOCTYPE svg PUBLIC "-//W3C//DTD SVG 20010904//EN"
 "http://www.w3.org/TR/2001/REC-SVG-20010904/DTD/svg10.dtd">
<svg version="1.0" xmlns="http://www.w3.org/2000/svg"
 width="674.000000pt" height="501.000000pt" viewBox="0 0 674.000000 501.000000"
 preserveAspectRatio="xMidYMid meet">

<g transform="translate(0.000000,501.000000) scale(0.100000,-0.100000)"
fill="#000000" stroke="none">
<path d="M2694 4394 c-44 -16 -124 -86 -124 -109 0 -7 -6 -15 -12 -17 -14 -5
-31 -2 -288 58 -203 46 -218 48 -234 35 -8 -7 -31 -65 -52 -129 -20 -64 -40
-126 -44 -137 -5 -11 -31 -90 -58 -175 l-49 -155 -84 -7 c-255 -20 -454 -73
-637 -168 l-92 -49 -66 35 c-55 29 -76 34 -131 34 -85 0 -130 -14 -189 -59
-155 -117 -167 -332 -27 -462 l43 -39 0 -85 c0 -129 33 -231 110 -345 43 -63
153 -172 220 -217 60 -41 217 -123 234 -123 7 0 19 -6 25 -13 8 -11 2 -18 -28
-35 -83 -47 -159 -142 -212 -267 -20 -45 -39 -154 -39 -220 0 -70 20 -177 41
-225 29 -64 54 -109 85 -149 38 -50 147 -135 184 -144 43 -11 59 -30 85 -99
l24 -68 -37 0 c-78 0 -180 -40 -240 -94 -13 -12 -36 -41 -50 -66 -22 -38 -27
-56 -27 -123 0 -66 3 -81 19 -93 17 -12 145 -14 823 -14 l803 0 16 26 c23 34
22 140 -1 184 -50 96 -163 168 -280 178 l-62 5 23 65 c13 36 24 66 24 68 0 2
17 10 38 19 162 71 264 187 311 355 18 67 30 149 26 192 -12 148 -41 234 -113
336 -42 61 -144 152 -169 152 -7 0 -13 5 -13 10 0 6 6 10 13 10 6 0 56 22 110
50 307 156 477 384 477 642 0 83 1 86 28 103 60 39 99 102 118 190 10 50 10
69 -3 120 -16 66 -51 127 -92 163 -98 85 -270 95 -375 23 -38 -26 -43 -28 -61
-14 -31 23 -154 83 -222 109 -129 49 -276 81 -455 99 -38 4 -68 10 -68 13 0 4
7 27 15 52 26 79 102 313 120 372 9 32 21 60 25 63 5 3 41 -2 82 -11 40 -9 91
-20 113 -25 22 -5 85 -19 140 -32 l100 -22 6 -46 c10 -65 50 -124 116 -165 50
-33 63 -36 127 -37 81 0 131 18 181 68 54 55 67 96 63 194 -3 83 -4 88 -41
133 -56 68 -98 90 -182 94 -46 2 -84 -2 -111 -12z m176 -106 c93 -64 92 -190
-2 -251 -104 -67 -228 2 -228 128 0 58 21 94 74 126 44 27 114 25 156 -3z
m-803 -639 c265 -35 455 -105 629 -230 155 -112 228 -216 274 -392 27 -104
-25 -277 -118 -389 -39 -47 -164 -158 -178 -158 -4 0 -15 -6 -23 -14 -24 -21
-193 -106 -211 -106 -9 0 -20 -4 -26 -8 -32 -27 -267 -78 -425 -92 -271 -24
-584 31 -802 141 -225 113 -362 251 -420 423 -35 102 -18 254 40 361 126 235
483 429 863 468 80 8 324 6 397 -4z m-1152 -159 c10 -9 -2 -25 -60 -83 -68
-67 -165 -204 -165 -234 0 -22 -18 -14 -43 20 -29 38 -50 123 -36 148 5 10 9
27 9 39 0 32 89 115 136 126 44 11 138 1 159 -16z m2122 -16 c99 -80 112 -212
30 -301 -27 -30 -34 -29 -42 7 -10 47 -96 169 -164 233 -33 32 -58 63 -55 69
12 20 51 28 121 25 63 -2 76 -6 110 -33z m-1592 -1271 c125 -29 216 -37 415
-38 203 0 299 9 415 39 96 26 91 30 105 -86 15 -118 8 -488 -10 -583 -62 -326
-149 -540 -276 -677 -80 -86 -85 -88 -238 -88 l-136 0 -42 38 c-59 52 -73 68
-122 142 -74 112 -138 269 -171 420 -9 41 -20 93 -25 115 -23 103 -32 269 -26
450 8 255 13 298 35 289 9 -3 43 -13 76 -21z m-210 -320 c1 -243 8 -327 41
-482 8 -35 12 -66 10 -68 -8 -9 -92 61 -124 103 -68 91 -101 191 -102 307 0
127 47 252 126 337 26 28 47 50 48 50 0 0 1 -111 1 -247z m1372 103 c37 -72
53 -146 53 -241 0 -141 -40 -251 -124 -338 -39 -40 -87 -77 -102 -77 -3 0 -3
10 0 23 36 127 58 353 56 577 -1 102 -2 190 -1 195 3 17 91 -87 118 -139z
m-1189 -1032 c12 -4 29 -19 38 -35 8 -16 34 -53 59 -84 25 -30 45 -57 45 -60
0 -3 -99 -5 -220 -5 l-220 0 0 28 c0 58 85 138 165 155 31 7 108 7 133 1z
m1064 -15 c74 -39 138 -119 124 -156 -4 -10 -54 -13 -226 -13 -121 0 -220 2
-220 5 0 3 11 18 25 33 15 15 42 53 61 84 21 34 43 59 57 62 36 8 154 -2 179
-15z"/>
<path d="M1411 3280 c-78 -18 -131 -86 -131 -167 0 -72 20 -116 71 -152 36
-26 51 -31 101 -31 66 0 89 9 135 53 42 39 60 113 44 173 -14 51 -73 108 -128
123 -42 12 -44 12 -92 1z"/>
<path d="M2223 3279 c-49 -14 -109 -77 -123 -127 -26 -97 38 -199 139 -221
157 -33 275 141 187 276 -39 60 -133 94 -203 72z"/>
<path d="M1432 2648 c-7 -7 -12 -25 -12 -40 0 -56 131 -127 285 -154 210 -37
442 2 562 94 45 34 55 54 43 86 -12 32 -58 36 -84 7 -23 -25 -107 -65 -171
-83 -33 -8 -103 -12 -205 -11 -141 1 -161 4 -225 27 -38 15 -87 40 -107 56
-39 32 -66 38 -86 18z"/>
<path d="M5605 2273 c-53 -13 -55 -22 -55 -225 0 -103 -3 -188 -6 -188 -3 0
-18 8 -32 18 -50 35 -96 47 -172 47 -92 -1 -163 -31 -226 -97 -75 -79 -108
-154 -119 -273 -18 -203 77 -387 230 -444 100 -37 240 -25 298 27 17 15 19 15
28 0 30 -53 101 -67 139 -26 20 21 20 32 20 567 0 502 -2 548 -18 567 -18 23
-55 34 -87 27z m-195 -503 c46 -13 95 -60 123 -118 18 -39 22 -63 21 -147 -2
-140 -38 -212 -127 -255 -80 -39 -163 -14 -215 62 -43 64 -54 112 -49 203 6
102 13 130 49 183 48 70 116 95 198 72z"/>
<path d="M4737 2252 c-15 -16 -17 -46 -17 -205 0 -103 -3 -187 -6 -187 -3 0
-18 8 -32 18 -51 35 -96 47 -177 46 -67 0 -89 -5 -133 -28 -118 -60 -195 -188
-208 -342 -21 -272 128 -464 361 -464 72 0 154 25 171 51 8 14 24 10 24 -5 0
-45 104 -62 140 -24 20 21 20 32 20 565 0 623 4 593 -80 593 -33 0 -52 -5 -63
-18z m-157 -482 c40 -11 87 -56 121 -115 20 -35 23 -54 22 -145 0 -114 -11
-152 -60 -210 -15 -18 -45 -41 -68 -51 -139 -64 -265 55 -265 250 0 100 25
176 73 224 57 57 101 68 177 47z"/>
<path d="M5882 2253 c-82 -40 -109 -141 -56 -210 51 -67 126 -82 193 -37 92
60 84 196 -13 244 -51 24 -80 25 -124 3z m108 -83 c24 -24 26 -67 3 -92 -25
-28 -88 -24 -109 7 -44 68 49 142 106 85z"/>
<path d="M6310 2153 c-44 -17 -50 -33 -50 -135 l0 -98 -38 0 c-48 0 -82 -32
-82 -77 0 -40 39 -73 86 -73 l34 0 0 -318 c0 -306 1 -319 20 -340 15 -15 33
-22 60 -22 50 0 80 30 80 79 1 20 0 163 0 319 l-1 282 34 0 c38 0 82 29 92 60
13 41 -31 89 -81 90 -40 0 -44 11 -44 114 0 67 -3 86 -18 99 -20 19 -69 29
-92 20z"/>
<path d="M2994 1915 c-17 -7 -34 -20 -38 -30 -3 -9 -6 -180 -6 -379 0 -352 1
-364 21 -390 16 -21 29 -26 63 -26 74 0 75 1 78 280 3 204 7 250 20 275 30 54
66 83 134 105 36 12 75 31 85 41 42 42 8 123 -55 135 -39 7 -110 -20 -140 -55
-23 -26 -46 -27 -46 -3 0 42 -66 69 -116 47z"/>
<path d="M3685 1926 c-5 -2 -30 -9 -55 -17 -155 -45 -260 -210 -260 -409 0
-137 37 -229 128 -317 71 -69 135 -93 248 -93 129 0 227 34 302 104 26 24 32
37 32 71 0 45 -22 75 -56 75 -10 0 -45 -18 -77 -39 -60 -41 -143 -71 -196 -71
-89 0 -197 88 -203 166 l-3 39 253 3 c310 3 302 0 302 106 0 202 -149 370
-339 382 -37 2 -70 2 -76 0z m153 -173 c17 -11 41 -32 53 -47 26 -33 50 -108
40 -125 -5 -8 -60 -11 -197 -9 l-189 3 3 35 c6 80 50 130 142 164 28 11 117
-2 148 -21z"/>
<path d="M5896 1897 l-26 -26 0 -364 c0 -280 3 -367 13 -381 7 -9 31 -20 53
-23 75 -10 74 -13 74 407 -1 398 0 395 -58 406 -24 5 -36 1 -56 -19z"/>
</g>
</svg>
